<svg xmlns="http://www.w3.org/2000/svg" viewBox="0 0 1400 780" role="img" aria-labelledby="arch-title arch-desc">
  <title id="arch-title">TrustEdge architecture</title>
  <desc id="arch-desc">Clear left-to-right flow: Endpoints with TrustEdge Agent, Agent API ingest, Kafka stream, detection engine, then TrustEdge control plane and React dashboard.</desc>
  <defs>
    <linearGradient id="arch-bg" x1="0%" y1="0%" x2="100%" y2="100%">
      <stop offset="0%" stop-color="#F8FAFC"/>
      <stop offset="100%" stop-color="#EEF2FF"/>
    </linearGradient>
    <linearGradient id="arch-brand" x1="0%" y1="0%" x2="100%" y2="0%">
      <stop offset="0%" stop-color="#2563EB"/>
      <stop offset="100%" stop-color="#7C3AED"/>
    </linearGradient>
    <linearGradient id="arch-blue" x1="0%" y1="0%" x2="0%" y2="100%">
      <stop offset="0%" stop-color="#EFF6FF"/>
      <stop offset="100%" stop-color="#DBEAFE"/>
    </linearGradient>
    <linearGradient id="arch-violet" x1="0%" y1="0%" x2="0%" y2="100%">
      <stop offset="0%" stop-color="#F5F3FF"/>
      <stop offset="100%" stop-color="#EDE9FE"/>
    </linearGradient>
    <linearGradient id="arch-rose" x1="0%" y1="0%" x2="0%" y2="100%">
      <stop offset="0%" stop-color="#FFF1F2"/>
      <stop offset="100%" stop-color="#FFE4E6"/>
    </linearGradient>
    <marker id="arch-arr" viewBox="0 0 10 10" refX="9" refY="5" markerWidth="8" markerHeight="8" orient="auto">
      <path d="M0 0 L10 5 L0 10 z" fill="#6366F1"/>
    </marker>
    <style>
      .title { font-family: ui-sans-serif, system-ui, -apple-system, Segoe UI, sans-serif; font-size: 34px; font-weight: 800; fill: #0F172A; }
      .sub { font-family: ui-sans-serif, system-ui, -apple-system, Segoe UI, sans-serif; font-size: 16px; font-weight: 500; fill: #64748B; }
      .num { font-family: ui-sans-serif, system-ui, -apple-system, Segoe UI, sans-serif; font-size: 16px; font-weight: 800; fill: #FFFFFF; }
      .h { font-family: ui-sans-serif, system-ui, -apple-system, Segoe UI, sans-serif; font-size: 20px; font-weight: 800; fill: #0F172A; }
      .b { font-family: ui-sans-serif, system-ui, -apple-system, Segoe UI, sans-serif; font-size: 14px; font-weight: 600; fill: #334155; }
      .s { font-family: ui-sans-serif, system-ui, -apple-system, Segoe UI, sans-serif; font-size: 13px; font-weight: 500; fill: #64748B; }
      .step { font-family: ui-sans-serif, system-ui, -apple-system, Segoe UI, sans-serif; font-size: 13px; font-weight: 800; letter-spacing: 0.06em; fill: #4F46E5; }
      .foot { font-family: ui-sans-serif, system-ui, -apple-system, Segoe UI, sans-serif; font-size: 13px; font-weight: 600; fill: #94A3B8; }
    </style>
  </defs>

  <rect width="1400" height="780" rx="28" fill="url(#arch-bg)"/>

  <text class="title" x="56" y="64">TrustEdge architecture</text>
  <text class="sub" x="56" y="96">One path: collect on the endpoint -&gt; ingest -&gt; stream -&gt; detect -&gt; alert in the dashboard</text>

  <path d="M180 300 H1260" fill="none" stroke="url(#arch-brand)" stroke-width="6" stroke-linecap="round" opacity="0.25"/>

  <g transform="translate(48,160)">
    <circle cx="36" cy="36" r="22" fill="#2563EB"/>
    <text class="num" x="36" y="42" text-anchor="middle">1</text>
    <text class="step" x="70" y="28">EDGE</text>
    <text class="h" x="70" y="54">Endpoints</text>
    <rect y="80" width="220" height="280" rx="22" fill="url(#arch-blue)" stroke="#93C5FD" stroke-width="2"/>
    <text class="h" x="110" y="128" text-anchor="middle">TrustEdge Agent</text>
    <text class="s" x="110" y="154" text-anchor="middle">macOS / Linux / Windows</text>
    <rect x="28" y="180" width="164" height="36" rx="10" fill="#FFFFFF" stroke="#BFDBFE"/>
    <text class="b" x="110" y="203" text-anchor="middle">Collect signals</text>
    <rect x="28" y="228" width="164" height="36" rx="10" fill="#FFFFFF" stroke="#BFDBFE"/>
    <text class="b" x="110" y="251" text-anchor="middle">Batch + compress</text>
    <rect x="28" y="276" width="164" height="36" rx="10" fill="#FFFFFF" stroke="#BFDBFE"/>
    <text class="b" x="110" y="299" text-anchor="middle">HTTPS upload</text>
    <text class="s" x="110" y="340" text-anchor="middle">process / apps / network</text>
  </g>

  <path d="M278 340 H318" stroke="#6366F1" stroke-width="4" stroke-linecap="round" marker-end="url(#arch-arr)"/>
  <text class="s" x="298" y="320" text-anchor="middle">POST /v1/events</text>

  <g transform="translate(330,160)">
    <circle cx="36" cy="36" r="22" fill="#4F46E5"/>
    <text class="num" x="36" y="42" text-anchor="middle">2</text>
    <text class="step" x="70" y="28">INGEST</text>
    <text class="h" x="70" y="54">Agent API</text>
    <rect y="80" width="220" height="280" rx="22" fill="url(#arch-violet)" stroke="#C4B5FD" stroke-width="2"/>
    <text class="h" x="110" y="128" text-anchor="middle">Validate + persist</text>
    <text class="s" x="110" y="154" text-anchor="middle">TrustEdge-Agent-API</text>
    <rect x="28" y="180" width="164" height="36" rx="10" fill="#FFFFFF" stroke="#DDD6FE"/>
    <text class="b" x="110" y="203" text-anchor="middle">Authenticate device</text>
    <rect x="28" y="228" width="164" height="36" rx="10" fill="#FFFFFF" stroke="#DDD6FE"/>
    <text class="b" x="110" y="251" text-anchor="middle">Check batch schema</text>
    <rect x="28" y="276" width="164" height="36" rx="10" fill="#FFFFFF" stroke="#DDD6FE"/>
    <text class="b" x="110" y="299" text-anchor="middle">Store events</text>
    <text class="s" x="110" y="340" text-anchor="middle">zstd / device tokens</text>
  </g>

  <path d="M560 340 H600" stroke="#6366F1" stroke-width="4" stroke-linecap="round" marker-end="url(#arch-arr)"/>
  <text class="s" x="580" y="320" text-anchor="middle">publish</text>

  <g transform="translate(612,160)">
    <circle cx="36" cy="36" r="22" fill="#7C3AED"/>
    <text class="num" x="36" y="42" text-anchor="middle">3</text>
    <text class="step" x="70" y="28">STREAM</text>
    <text class="h" x="70" y="54">Kafka bus</text>
    <rect y="80" width="220" height="280" rx="22" fill="url(#arch-violet)" stroke="#C4B5FD" stroke-width="2"/>
    <text class="h" x="110" y="128" text-anchor="middle">Event stream</text>
    <text class="s" x="110" y="154" text-anchor="middle">Kafka / Redpanda</text>
    <path d="M40 210 C70 180 100 240 130 210 S190 180 210 210" fill="none" stroke="#7C3AED" stroke-width="3.5" stroke-linecap="round"/>
    <path d="M40 240 C70 210 100 270 130 240 S190 210 210 240" fill="none" stroke="#C4B5FD" stroke-width="3" stroke-linecap="round"/>
    <rect x="28" y="276" width="164" height="36" rx="10" fill="#FFFFFF" stroke="#DDD6FE"/>
    <text class="b" x="110" y="299" text-anchor="middle">agent.events</text>
    <text class="s" x="110" y="340" text-anchor="middle">durable / ordered</text>
  </g>

  <path d="M842 340 H882" stroke="#6366F1" stroke-width="4" stroke-linecap="round" marker-end="url(#arch-arr)"/>
  <text class="s" x="862" y="320" text-anchor="middle">consume</text>

  <g transform="translate(894,160)">
    <circle cx="36" cy="36" r="22" fill="#A21CAF"/>
    <text class="num" x="36" y="42" text-anchor="middle">4</text>
    <text class="step" x="70" y="28">DETECT</text>
    <text class="h" x="70" y="54">Rules engine</text>
    <rect y="80" width="220" height="280" rx="22" fill="url(#arch-rose)" stroke="#FECDD3" stroke-width="2"/>
    <text class="h" x="110" y="128" text-anchor="middle">Detection</text>
    <text class="s" x="110" y="154" text-anchor="middle">deterministic rules</text>
    <rect x="28" y="180" width="164" height="36" rx="10" fill="#FFFFFF" stroke="#FECDD3"/>
    <text class="b" x="110" y="203" text-anchor="middle">Attack chains</text>
    <rect x="28" y="228" width="164" height="36" rx="10" fill="#FFFFFF" stroke="#FECDD3"/>
    <text class="b" x="110" y="251" text-anchor="middle">Drift / anomalies</text>
    <rect x="28" y="276" width="164" height="36" rx="10" fill="#FFFFFF" stroke="#FECDD3"/>
    <text class="b" x="110" y="299" text-anchor="middle">Create alert</text>
    <text class="s" x="110" y="340" text-anchor="middle">not LLM judgment</text>
  </g>

  <path d="M1124 340 H1164" stroke="#6366F1" stroke-width="4" stroke-linecap="round" marker-end="url(#arch-arr)"/>
  <text class="s" x="1144" y="320" text-anchor="middle">ingest</text>

  <g transform="translate(1176,160)">
    <circle cx="36" cy="36" r="22" fill="#0F766E"/>
    <text class="num" x="36" y="42" text-anchor="middle">5</text>
    <text class="step" x="70" y="28" fill="#0F766E">OPERATE</text>
    <text class="h" x="70" y="54">Dashboard</text>
    <rect y="80" width="180" height="280" rx="22" fill="#ECFDF5" stroke="#6EE7B7" stroke-width="2"/>
    <text class="h" x="90" y="128" text-anchor="middle">TrustEdge</text>
    <text class="s" x="90" y="154" text-anchor="middle">API + React UI</text>
    <rect x="18" y="180" width="144" height="36" rx="10" fill="#FFFFFF" stroke="#A7F3D0"/>
    <text class="b" x="90" y="203" text-anchor="middle">Attack alerts</text>
    <rect x="18" y="228" width="144" height="36" rx="10" fill="#FFFFFF" stroke="#A7F3D0"/>
    <text class="b" x="90" y="251" text-anchor="middle">Network map</text>
    <rect x="18" y="276" width="144" height="36" rx="10" fill="#FFFFFF" stroke="#A7F3D0"/>
    <text class="b" x="90" y="299" text-anchor="middle">Behavior</text>
    <text class="s" x="90" y="340" text-anchor="middle">S3 / CloudFront</text>
  </g>

  <g transform="translate(48,560)">
    <rect width="1304" height="140" rx="22" fill="#FFFFFF" stroke="#E2E8F0" stroke-width="2"/>
    <text class="h" x="40" y="44">What each stage needs</text>
    <g transform="translate(40,70)">
      <rect width="230" height="44" rx="12" fill="#EFF6FF" stroke="#BFDBFE"/>
      <text class="b" x="115" y="28" text-anchor="middle">1  Endpoint agent on device</text>
    </g>
    <g transform="translate(290,70)">
      <rect width="230" height="44" rx="12" fill="#F5F3FF" stroke="#DDD6FE"/>
      <text class="b" x="115" y="28" text-anchor="middle">2  Agent API service</text>
    </g>
    <g transform="translate(540,70)">
      <rect width="230" height="44" rx="12" fill="#F5F3FF" stroke="#DDD6FE"/>
      <text class="b" x="115" y="28" text-anchor="middle">3  Kafka / Redpanda</text>
    </g>
    <g transform="translate(790,70)">
      <rect width="230" height="44" rx="12" fill="#FFF1F2" stroke="#FECDD3"/>
      <text class="b" x="115" y="28" text-anchor="middle">4  Detection engine</text>
    </g>
    <g transform="translate(1040,70)">
      <rect width="220" height="44" rx="12" fill="#ECFDF5" stroke="#A7F3D0"/>
      <text class="b" x="110" y="28" text-anchor="middle">5  FastAPI + React</text>
    </g>
  </g>

  <text class="foot" x="700" y="740" text-anchor="middle">TrustEdgeOrg - endpoint telemetry - rules-based detection - attack alerts</text>
</svg>
