<svg xmlns="http://www.w3.org/2000/svg" viewBox="0 0 1180 320" role="img" aria-labelledby="title desc">
  <title id="eco-title">TrustEdge ecosystem</title>
  <desc id="eco-desc">Three repositories: TrustEdge Agent, Agent API, and TrustEdge control plane</desc>
  <defs>
    <linearGradient id="eco-bg" x1="0%" y1="0%" x2="100%" y2="100%">
      <stop offset="0%" stop-color="#F8FAFC"/>
      <stop offset="100%" stop-color="#EEF2FF"/>
    </linearGradient>
    <linearGradient id="eco-brand" x1="0%" y1="0%" x2="100%" y2="0%">
      <stop offset="0%" stop-color="#60A5FA"/>
      <stop offset="100%" stop-color="#A78BFA"/>
    </linearGradient>
    <linearGradient id="eco-blue" x1="0%" y1="0%" x2="0%" y2="100%">
      <stop offset="0%" stop-color="#EFF6FF"/>
      <stop offset="100%" stop-color="#DBEAFE"/>
    </linearGradient>
    <linearGradient id="eco-violet" x1="0%" y1="0%" x2="0%" y2="100%">
      <stop offset="0%" stop-color="#F5F3FF"/>
      <stop offset="100%" stop-color="#EDE9FE"/>
    </linearGradient>
    <marker id="eco-arr" markerWidth="8" markerHeight="8" refX="6" refY="3" orient="auto">
      <path d="M0,0 L6,3 L0,6 Z" fill="#7C3AED"/>
    </marker>
    <style>
      .h { font-family: ui-sans-serif, system-ui, -apple-system, Segoe UI, sans-serif; font-size: 16px; font-weight: 800; fill: #0F172A; }
      .p { font-family: ui-sans-serif, system-ui, -apple-system, Segoe UI, sans-serif; font-size: 12px; font-weight: 500; fill: #475569; }
      .chip { font-family: ui-sans-serif, system-ui, -apple-system, Segoe UI, sans-serif; font-size: 10.5px; font-weight: 700; }
      .title { font-family: ui-sans-serif, system-ui, -apple-system, Segoe UI, sans-serif; font-size: 14px; font-weight: 800; letter-spacing: 0.06em; fill: #64748B; }
    </style>
  </defs>

  <rect width="1180" height="320" rx="22" fill="url(#eco-bg)"/>
  <text class="title" x="40" y="36">ECOSYSTEM</text>
  <text class="p" x="140" y="36">Three repos · one detection path</text>

  <!-- Agent -->
  <g transform="translate(140,64)">
    <rect width="260" height="196" rx="18" fill="url(#eco-blue)" stroke="#93C5FD" stroke-width="1.5"/>
    <circle cx="36" cy="36" r="18" fill="#EFF6FF" stroke="#2563EB" stroke-width="2"/>
    <circle cx="36" cy="36" r="5" fill="#2563EB"/>
    <path d="M28 28 A12 12 0 0 1 44 28" fill="none" stroke="#3B82F6" stroke-width="2" stroke-linecap="round"/>
    <text class="h" x="66" y="32">Agent</text>
    <text class="chip" x="66" y="48" fill="#1D4ED8">Go collector</text>
    <text class="p" x="24" y="86">Process · app focus</text>
    <text class="p" x="24" y="106">Network posture</text>
    <text class="p" x="24" y="126">Batch · compress</text>
    <rect x="24" y="148" width="212" height="28" rx="8" fill="#1E3A8A"/>
    <text class="chip" x="130" y="166" text-anchor="middle" fill="#FFF">TrustEdge-Agent</text>
  </g>

  <path d="M410 160 H460" stroke="url(#eco-brand)" stroke-width="3" stroke-linecap="round" marker-end="url(#eco-arr)"/>

  <!-- Agent API -->
  <g transform="translate(470,64)">
    <rect width="260" height="196" rx="18" fill="url(#eco-violet)" stroke="#C4B5FD" stroke-width="1.5"/>
    <rect x="20" y="20" width="32" height="28" rx="4" fill="#F5F3FF" stroke="#7C3AED" stroke-width="2"/>
    <path d="M28 28 h-4 v10 h4 M44 28 h4 v10 h-4" fill="none" stroke="#8B5CF6" stroke-width="2" stroke-linecap="round"/>
    <text class="h" x="66" y="32">Agent API</text>
    <text class="chip" x="66" y="48" fill="#6D28D9">FastAPI ingest</text>
    <text class="p" x="24" y="86">Auth · validate</text>
    <text class="p" x="24" y="106">Persist events</text>
    <text class="p" x="24" y="126">Kafka publish</text>
    <rect x="24" y="148" width="212" height="28" rx="8" fill="#5B21B6"/>
    <text class="chip" x="130" y="166" text-anchor="middle" fill="#FFF">TrustEdge-Agent-API</text>
  </g>

  <path d="M740 160 H790" stroke="url(#eco-brand)" stroke-width="3" stroke-linecap="round" marker-end="url(#eco-arr)"/>

  <!-- Control plane -->
  <g transform="translate(800,64)">
    <rect width="260" height="196" rx="18" fill="url(#eco-violet)" stroke="#C4B5FD" stroke-width="1.5"/>
    <path d="M36 18 L50 26 V40 C50 48 44 52 36 54 C28 52 22 48 22 40 V26 Z" fill="none" stroke="#7C3AED" stroke-width="2.2"/>
    <path d="M30 36 H42 M36 30 V42" stroke="#7C3AED" stroke-width="2" stroke-linecap="round"/>
    <text class="h" x="66" y="32">TrustEdge</text>
    <text class="chip" x="66" y="48" fill="#6D28D9">Control plane</text>
    <text class="p" x="24" y="86">Rules · attack alerts</text>
    <text class="p" x="24" y="106">Graph · network map</text>
    <text class="p" x="24" y="126">React dashboard</text>
    <rect x="24" y="148" width="212" height="28" rx="8" fill="#5B21B6"/>
    <text class="chip" x="130" y="166" text-anchor="middle" fill="#FFF">TrustEdge</text>
  </g>
</svg>
